<svg xmlns="http://www.w3.org/2000/svg" viewBox="0 0 226 226" width="100" height="100"><g fill="none" stroke-miterlimit="10" font-family="none" font-weight="none" font-size="none" text-anchor="none" style="mix-blend-mode:normal"><path d="M0 226V0h226v226z"/><path d="M0 113C0 50.592 50.592 0 113 0s113 50.592 113 113-50.592 113-113 113S0 175.408 0 113zm113 108.48c59.912 0 108.48-48.568 108.48-108.48C221.48 53.088 172.912 4.52 113 4.52 53.088 4.52 4.52 53.088 4.52 113c0 59.912 48.568 108.48 108.48 108.48z" fill="#000"/><path d="M113 226C50.592 226 0 175.408 0 113S50.592 0 113 0s113 50.592 113 113-50.592 113-113 113z"/><path d="M113 221.48C53.088 221.48 4.52 172.912 4.52 113 4.52 53.088 53.088 4.52 113 4.52c59.912 0 108.48 48.568 108.48 108.48 0 59.912-48.568 108.48-108.48 108.48z"/><path d="M113 226C50.592 226 0 175.408 0 113S50.592 0 113 0s113 50.592 113 113-50.592 113-113 113z"/><path d="M113 221.48C53.088 221.48 4.52 172.912 4.52 113 4.52 53.088 53.088 4.52 113 4.52c59.912 0 108.48 48.568 108.48 108.48 0 59.912-48.568 108.48-108.48 108.48z"/><path d="M113 226C50.592 226 0 175.408 0 113S50.592 0 113 0s113 50.592 113 113-50.592 113-113 113z"/><path d="M113 221.48C53.088 221.48 4.52 172.912 4.52 113 4.52 53.088 53.088 4.52 113 4.52c59.912 0 108.48 48.568 108.48 108.48 0 59.912-48.568 108.48-108.48 108.48z"/><path d="M113 226C50.592 226 0 175.408 0 113S50.592 0 113 0s113 50.592 113 113-50.592 113-113 113z"/><path d="M113 221.48C53.088 221.48 4.52 172.912 4.52 113 4.52 53.088 53.088 4.52 113 4.52c59.912 0 108.48 48.568 108.48 108.48 0 59.912-48.568 108.48-108.48 108.48z"/><path d="M113 226C50.592 226 0 175.408 0 113S50.592 0 113 0s113 50.592 113 113-50.592 113-113 113z"/><path d="M113 221.48C53.088 221.48 4.52 172.912 4.52 113 4.52 53.088 53.088 4.52 113 4.52c59.912 0 108.48 48.568 108.48 108.48 0 59.912-48.568 108.48-108.48 108.48z"/><path d="M113 226C50.592 226 0 175.408 0 113S50.592 0 113 0s113 50.592 113 113-50.592 113-113 113z"/><path d="M113 221.48C53.088 221.48 4.52 172.912 4.52 113 4.52 53.088 53.088 4.52 113 4.52c59.912 0 108.48 48.568 108.48 108.48 0 59.912-48.568 108.48-108.48 108.48z"/><path d="M113 226C50.592 226 0 175.408 0 113S50.592 0 113 0s113 50.592 113 113-50.592 113-113 113z"/><path d="M113 221.48C53.088 221.48 4.52 172.912 4.52 113 4.52 53.088 53.088 4.52 113 4.52c59.912 0 108.48 48.568 108.48 108.48 0 59.912-48.568 108.48-108.48 108.48z"/><path d="M113 226C50.592 226 0 175.408 0 113S50.592 0 113 0s113 50.592 113 113-50.592 113-113 113z"/><path d="M113 221.48C53.088 221.48 4.52 172.912 4.52 113 4.52 53.088 53.088 4.52 113 4.52c59.912 0 108.48 48.568 108.48 108.48 0 59.912-48.568 108.48-108.48 108.48z"/><path d="M113 226C50.592 226 0 175.408 0 113S50.592 0 113 0s113 50.592 113 113-50.592 113-113 113z"/><path d="M113 221.48C53.088 221.48 4.52 172.912 4.52 113 4.52 53.088 53.088 4.52 113 4.52c59.912 0 108.48 48.568 108.48 108.48 0 59.912-48.568 108.48-108.48 108.48z"/><path d="M113 226C50.592 226 0 175.408 0 113S50.592 0 113 0s113 50.592 113 113-50.592 113-113 113z"/><path d="M113 221.48C53.088 221.48 4.52 172.912 4.52 113 4.52 53.088 53.088 4.52 113 4.52c59.912 0 108.48 48.568 108.48 108.48 0 59.912-48.568 108.48-108.48 108.48z"/><path d="M113 226C50.592 226 0 175.408 0 113S50.592 0 113 0s113 50.592 113 113-50.592 113-113 113z"/><path d="M113 221.48C53.088 221.48 4.52 172.912 4.52 113 4.52 53.088 53.088 4.52 113 4.52c59.912 0 108.48 48.568 108.48 108.48 0 59.912-48.568 108.48-108.48 108.48z"/><path d="M113 226C50.592 226 0 175.408 0 113S50.592 0 113 0s113 50.592 113 113-50.592 113-113 113z"/><path d="M113 221.48C53.088 221.48 4.52 172.912 4.52 113 4.52 53.088 53.088 4.52 113 4.52c59.912 0 108.48 48.568 108.48 108.48 0 59.912-48.568 108.48-108.48 108.48z"/><path d="M113 226C50.592 226 0 175.408 0 113S50.592 0 113 0s113 50.592 113 113-50.592 113-113 113z"/><path d="M113 221.48C53.088 221.48 4.52 172.912 4.52 113 4.52 53.088 53.088 4.52 113 4.52c59.912 0 108.48 48.568 108.48 108.48 0 59.912-48.568 108.48-108.48 108.48z"/><path d="M175.99 56.22a3.1 3.1 0 0 0-.331.11 3.565 3.565 0 0 0-2.204 1.653l-72.078 111.754-49.595-44.746a3.538 3.538 0 0 0-3.678-1.226 3.515 3.515 0 0 0-2.577 2.893 3.518 3.518 0 0 0 1.626 3.513l52.57 47.611a3.507 3.507 0 0 0 2.825.827 3.523 3.523 0 0 0 2.466-1.599l74.392-115.28a3.525 3.525 0 0 0 .11-3.885 3.54 3.54 0 0 0-3.527-1.626z" fill="#000"/><path d="M113 226C50.592 226 0 175.408 0 113S50.592 0 113 0s113 50.592 113 113-50.592 113-113 113z"/><path d="M113 221.48C53.088 221.48 4.52 172.912 4.52 113 4.52 53.088 53.088 4.52 113 4.52c59.912 0 108.48 48.568 108.48 108.48 0 59.912-48.568 108.48-108.48 108.48z"/></g></svg>